<svg id="Слой_1" data-name="Слой 1" xmlns="http://www.w3.org/2000/svg" xmlns:xlink="http://www.w3.org/1999/xlink" viewBox="0 0 5936 1497.26">
  <defs>
    <style>
      .cls-1 {
        fill: #fff;
        stroke-miterlimit: 10;
        stroke-width: 25.59px;
        stroke: url(#Новый_образец_градиентной_зал_2);
      }

      .cls-2 {
        fill: url(#Новый_образец_градиентной_зал_2-2);
      }
    </style>
    <linearGradient id="Новый_образец_градиентной_зал_2" data-name="Новый образец градиентной зал 2" x1="35.69" y1="788.33" x2="5900.31" y2="788.33" gradientUnits="userSpaceOnUse">
      <stop offset="0.26" stop-color="#eb5e2a"/>
      <stop offset="0.75" stop-color="#147bc0"/>
    </linearGradient>
    <linearGradient id="Новый_образец_градиентной_зал_2-2" x1="0" y1="707.7" x2="5936" y2="707.7" xlink:href="#Новый_образец_градиентной_зал_2"/>
  </defs>
  <title>Монтажная область 1</title>
  <g>
    <path class="cls-1" d="M5840.34,381.37Q5793.15,334.26,5726,334.2H5002.21q-42.81,0-77.53,19.18-41.84-32.08-97.21-32.07-67.22,0-113.73,46.52a196.23,196.23,0,0,0-22,25.83q-126.64-72.35-284.3-72.35-241.65,0-411.61,169.91a621.7,621.7,0,0,0-44.66,49.59Q3931,501.69,3888.24,459,3750.66,321.3,3509,321.31T3097.33,491.22q-78.84,78.76-121,172.94-41.91-93.49-119.92-171.83c95.8-15.5,168.9-98.62,168.9-198.76,0-111.21-90.11-201.37-201.38-201.37s-171,91.92-171,203.13c0,19.64-27.55,36.91-22.32,54.83q-87.37-28.85-186.82-28.85t-186.88,28.85c5.23-17.92-39.56-36.13-39.56-55.77,0-111.21-42.55-202.19-153.76-202.19s-201.38,90.16-201.38,201.37c0,100.14,73.15,183.26,168.9,198.76q-77.92,78.32-119.92,171.83Q1869.09,570,1790.3,491.22q-170-169.91-411.67-169.91T967,491.22A619.13,619.13,0,0,0,900.11,570Q869,497.47,800,435.64,674,322.6,497,322.57q-174.43,0-301.76,79.49T67.92,561.66q0,80.19,49.74,130.54t117,50.39q60.7,0,113.73-53.61t144.74-56.24q91.74-2.57,112.46,63.33t-106,78.84q-138.35,5.22-138.3,122.79,0,118.88,138.3,129.24,146,18.12,125.36,84t-121.48,63.33q-100.81-2.57-163.52-60.71t-123.4-58.15q-67.2,0-117.6,50.4T48.48,1236.27q0,80.19,103.41,164.17t336,84q205.56,0,331.52-113.08,61.62-55.27,93-119A625.18,625.18,0,0,0,967,1314.5q169.9,169.92,411.61,169.92T1790.3,1314.5q78.67-78.76,120.92-172.88,42.15,94.17,120.93,172.88,170,169.92,411.67,170t411.61-170q78.69-78.68,120.93-172.88,42.21,94.1,121,172.88,169.92,169.92,411.62,169.92t379.29-137.65q42.83-42.74,62.93-81.91a620.54,620.54,0,0,0,44.66,49.64q169.91,169.92,411.61,169.92,157.68,0,284.3-72.35a145.82,145.82,0,0,0,22,24.52q46.52,47.88,113.73,47.83t114.38-47.18q47.11-47.12,47.17-114.38V656.76c4.33.4,8.71.55,13.19.55h200.32v665.55q0,67.22,47.17,114.38t114.39,47.18q67.2,0,114.38-47.18t47.17-114.38V657.31H5726q67.22,0,114.38-47.17t47.18-114.39Q5887.52,428.55,5840.34,381.37ZM1561.53,1085.74q-75.58,75.59-182.9,75.62t-182.85-75.62q-75.58-75.6-75.62-182.9T1195.78,720q75.6-75.6,182.85-75.62T1561.53,720q75.6,75.59,75.62,182.85T1561.53,1085.74Zm1065.14,0q-75.6,75.59-182.85,75.62t-182.91-75.62q-75.59-75.6-75.61-182.85T2260.91,720q75.6-75.6,182.91-75.57T2626.67,720q75.59,75.59,75.61,182.9T2626.67,1085.74Zm1097.45,0q-107.91,75.59-215.17,75.62t-182.85-75.62q-75.67-75.6-75.62-182.9T3326.1,720q75.58-75.6,182.85-75.62T3724.12,720q62.3,43.65,120.88,29c66.38,32.36,123.73,89.36,117.57,144.39-10.33,92.12-25.6,124.54-117.57,163.46Q3786.39,1042.14,3724.12,1085.74Zm866.17,0q-75.59,75.59-182.85,75.62t-182.85-75.62q-75.66-75.6-75.61-182.9T4224.59,720q75.6-75.6,182.85-75.62T4590.29,720q75.68,75.59,75.62,182.85T4590.29,1085.74Z"/>
    <path class="cls-2" d="M5888,294q-48-47.91-116.28-48H5036q-43.53,0-78.81,19.5-42.54-32.62-98.83-32.6-68.33,0-115.62,47.29a200.52,200.52,0,0,0-22.37,26.26q-128.74-73.55-289-73.55-245.67,0-418.45,172.74a627.43,627.43,0,0,0-45.4,50.41q-20.49-39.76-64-83.22-139.87-140-385.6-139.93T3099.48,405.66q-80.14,80.07-123,175.8-42.61-95-121.92-174.68C2952,391,3026.29,306.52,3026.29,204.72,3026.29,91.66,2934.68,0,2821.57,0s-204.72,91.66-204.72,204.72a205.2,205.2,0,0,0,8.19,57.53q-88.83-29.33-189.93-29.33t-190,29.33a205.2,205.2,0,0,0,8.19-57.53C2253.32,91.66,2161.65,0,2048.6,0s-204.73,91.66-204.73,204.72c0,101.8,74.37,186.3,171.71,202.06q-79.21,79.62-121.91,174.68-42.84-95.73-122.93-175.8-172.82-172.74-418.5-172.74T933.79,405.66a628.76,628.76,0,0,0-68,80Q834.14,412,764,349.15,635.89,234.24,455.91,234.2q-177.33,0-306.77,80.82T19.76,477.26q0,81.53,50.56,132.71T189.21,661.2q61.72,0,115.62-54.51T452,549.52q93.28-2.61,114.34,64.39T458.58,694.06Q317.93,699.36,318,818.89q0,120.83,140.6,131.38Q607,968.69,586,1035.63T462.52,1100Q360,1097.41,296.28,1038.3T170.84,979.18q-68.32,0-119.56,51.23T0,1163.07q0,81.54,105.12,166.9t341.58,85.37q209,0,337-114.95,62.65-56.19,94.59-121a635.81,635.81,0,0,0,55.48,63.21q172.73,172.73,418.45,172.73t418.5-172.73q80-80.07,122.93-175.76,42.84,95.75,122.94,175.76,172.82,172.73,418.5,172.78t418.45-172.78q80-80,122.94-175.76,42.91,95.65,123,175.76,172.74,172.73,418.45,172.73t385.6-139.93q43.51-43.44,64-83.27a629.84,629.84,0,0,0,45.4,50.47q172.72,172.73,418.45,172.73,160.29,0,289-73.55a148.62,148.62,0,0,0,22.37,24.93q47.3,48.67,115.62,48.62t116.28-47.95q47.9-47.91,47.95-116.29V573.94c4.41.41,8.86.56,13.41.56h203.65v676.6q0,68.33,48,116.29t116.28,47.95q68.32,0,116.28-47.95t48-116.29V574.5h203.64q68.33,0,116.28-48t48-116.28Q5936,341.93,5888,294ZM1538.17,1010q-76.85,76.86-185.93,76.88T1166.35,1010q-76.85-76.85-76.87-185.93t76.87-185.89q76.85-76.85,185.89-76.87t185.93,76.87q76.86,76.85,76.88,185.89T1538.17,1010ZM2621,1010q-76.85,76.86-185.89,76.88T2249.17,1010q-76.85-76.85-76.87-185.88t76.87-185.94q76.85-76.85,185.94-76.82T2621,638.22q76.85,76.85,76.87,185.94T2621,1010Zm1115.68,0q-109.71,76.86-218.75,76.88T3332.05,1010q-76.93-76.85-76.88-185.93t76.88-185.89q76.85-76.85,185.88-76.87t218.75,76.87q63.33,44.37,122.88,29.43-19.5,74.16-19.45,156.46t19.45,156.51Q3800,965.73,3736.68,1010Zm880.56,0q-76.86,76.86-185.89,76.88T4245.46,1010q-76.92-76.85-76.87-185.93t76.87-185.89q76.84-76.85,185.89-76.87t185.89,76.87q76.92,76.85,76.87,185.89T4617.24,1010Z"/>
  </g>
</svg>
